<svg id="Lager_1" data-name="Lager 1" xmlns="http://www.w3.org/2000/svg" viewBox="0 0 334.1 55.41"><defs><style>.cls-1{fill:#19b5fe;}.cls-2{fill:#fff;}</style></defs><title>logo_horizontal_color_inverted</title><path class="cls-1" d="M67.63,40.86l-3.57-6.43c5.06-1.8,10.85-6.85,10.85-16.32C74.91,8,68.06,0,56,0H27.56l-7,6.08v5.75H53.86c3.68,0,6.78,2.37,6.78,6.12s-3.1,6.12-6.78,6.12H35.71l-7,6.07V36H50l9.14,18.44H75.16Z"/><polygon class="cls-1" points="44.61 42.18 14.03 42.18 14.03 0 7 0 0 6.1 0 54.42 50.66 54.42 44.61 42.18"/><rect class="cls-2" x="95.89" y="10.53" width="6.6" height="34.69"/><rect class="cls-2" x="106.97" y="20.1" width="6.6" height="25.12"/><path class="cls-2" d="M110.24,8.51a4,4,0,1,0,4,4A4,4,0,0,0,110.24,8.51Z"/><polygon class="cls-2" points="134.63 20.1 128.08 37.58 121.53 20.1 114.45 20.1 124.54 45.22 131.66 45.22 141.75 20.1 134.63 20.1"/><path class="cls-2" d="M154,19.48a12.78,12.78,0,0,0-13,13.15c0,8.06,5.78,13.21,13.42,13.21,3.9,0,7.8-1.14,10.35-3.48l-2.91-4.26a10.34,10.34,0,0,1-6.71,2.49c-4.27,0-6.82-2.65-7.23-5.82h18.67V33.31C166.61,25.09,161.51,19.48,154,19.48Zm-6.18,10.81A6,6,0,0,1,154,24.73a5.81,5.81,0,0,1,6.19,5.56Z"/><path class="cls-2" d="M175.92,23.53V20.1h-6.61V45.22h6.61V28.63c1.09-1.61,4-2.81,6.18-2.81a8.28,8.28,0,0,1,1.82.16V19.53A10.73,10.73,0,0,0,175.92,23.53Z"/><path class="cls-2" d="M191.31,16.36a3.51,3.51,0,1,0-3.54-3.54A3.5,3.5,0,0,0,191.31,16.36Z"/><path class="cls-2" d="M202.28,16.36a3.51,3.51,0,1,0-3.54-3.54A3.54,3.54,0,0,0,202.28,16.36Z"/><path class="cls-2" d="M196.66,19.48a16.5,16.5,0,0,0-11,3.95l2.49,4.42a10.57,10.57,0,0,1,7.34-3c3.33,0,5.51,1.66,5.51,4.21v3.48c-1.66-2-4.63-3.07-8-3.07-4,0-8.73,2.14-8.73,8,0,5.62,4.73,8.32,8.73,8.32a10.39,10.39,0,0,0,8-3.22v2.6h6.6V29C207.63,21.77,202.38,19.48,196.66,19.48ZM201,39.19a6.61,6.61,0,0,1-5.3,2.18c-2.6,0-4.74-1.35-4.74-3.69s2.14-3.8,4.74-3.8a6.59,6.59,0,0,1,5.3,2.19Z"/><path class="cls-2" d="M237.85,40c-1.46,0-2.29-1.2-2.29-2.76V25.87h5.1V20.1h-5.1V13.24H228.9V20.1h-8.84V13.24h-6.65V20.1h-4.16v5.77h4.16V39c0,4.47,2.49,6.86,7.12,6.86,2.76,0,4.52-.73,5.51-1.61l-1.4-5a3.65,3.65,0,0,1-2.29.73c-1.46,0-2.29-1.2-2.29-2.76V25.87h8.84V39c0,4.47,2.5,6.86,7.13,6.86,2.75,0,4.52-.73,5.51-1.61l-1.4-5A3.65,3.65,0,0,1,237.85,40Z"/><path class="cls-2" d="M258.49,19.48a11.48,11.48,0,0,0-8.79,3.9V20.1h-6.6V45.22h6.6V28.32a7.16,7.16,0,0,1,5.72-3c2.81,0,4.63,1.2,4.63,4.68V45.22h6.61V27.49C266.66,22.6,264,19.48,258.49,19.48Z"/><rect class="cls-2" x="271.13" y="20.1" width="6.6" height="25.12"/><path class="cls-2" d="M274.4,8.51a4,4,0,1,0,4,4A4,4,0,0,0,274.4,8.51Z"/><path class="cls-2" d="M297.59,19.48a11.47,11.47,0,0,0-8.78,3.9V20.1H282.2V45.22h6.61V28.32a7.15,7.15,0,0,1,5.72-3c2.8,0,4.62,1.2,4.62,4.68V45.22h6.61V27.49C305.76,22.6,303.11,19.48,297.59,19.48Z"/><path class="cls-2" d="M327.44,20.1v3.23a9.67,9.67,0,0,0-7.75-3.85c-6.34,0-11.07,4.57-11.07,12.79s4.78,12.79,11.07,12.79a9.76,9.76,0,0,0,7.75-4v2.55c0,4.94-3.74,6.34-6.92,6.34a10,10,0,0,1-7.85-3.12l-3,4.79c3.12,2.75,6.5,3.74,10.81,3.74,6.19,0,13.58-2.34,13.58-11.91V20.1Zm0,16.23a7.31,7.31,0,0,1-5.67,2.86c-3.74,0-6.34-2.6-6.34-6.92s2.6-6.92,6.34-6.92a7.16,7.16,0,0,1,5.67,2.86Z"/></svg>