<svg id="Layer_1" data-name="Layer 1" xmlns="http://www.w3.org/2000/svg" viewBox="0 0 1200 1200"><defs><style>.cls-1{fill:#a00813;}.cls-2{fill:#00befa;}.cls-3{fill:#fff;}</style></defs><title>svs_product_bomben</title><rect class="cls-1" width="1200" height="1200"/><polygon class="cls-2" points="825.11 190.96 1200 190.96 1200 0 600 0 825.11 190.96"/><path class="cls-3" d="M1200,323H1030.84c-127.37,0-220.7,60.39-283.29,182.82,13.18-51.6,8.23-92.78-15.37-123.53-27.45-35.68-80.16-53.8-155.38-53.8H230.92L47,877.51H430.22c127.92,0,217.41-39,256.94-111.45,3.84,23.06,11.53,41.72,23.6,58.19,28.55,40.08,78,58.75,150.44,58.75h183.92c58.59,0,110.07-13,154.88-39.36ZM497.2,694.14c-10.44,24.15-23.61,29.64-71.93,29.64H328.1l14.82-43.92H471.39c19.22,0,26.9,3.3,28.55,4.39C499.94,685.9,499.39,689.2,497.2,694.14Zm51.05-208.63c-7.68,23.61-14.82,29.65-71.37,29.65H398.37l13.73-43.92H521.35c18.67,0,26.9,5.49,28,6.58A16.28,16.28,0,0,1,548.25,485.51ZM713,590.92A499.94,499.94,0,0,0,697.59,642c-1.65-3.84-3.84-7.14-6-11-7.14-11.53-16.47-20.86-26.35-28.55,22.51-9.88,44.47-24.7,60.94-48.31C721.2,566.22,716.8,578.29,713,590.92Zm321.73,126.83h-86.2v.54c-13.18,0-16.47-5.49-18.12-7.68-8.23-11.53-9.88-45,9.34-103.22,32.94-98.27,73.56-119.68,102.66-119.68h86.2c15.37,0,18.67,5.49,20.31,7.13,3.85,4.94,13.73,28-9.33,96.08C1112.65,671.08,1074.76,717.75,1034.69,717.75Z"/><path d="M715.71,499.24c11-41.73,7.68-74.12-9.34-96.63-20.86-27.45-64.78-41.18-129.57-41.18H254.53l-162,483.69H430.22c76.31,0,208.62-15.92,239.92-123.53,8.23-28.55,6-53.26-6.59-73C638.29,609,579,600.25,578.45,600.25l-56-8.23,57.1-4.39C633.35,583.24,697,569.51,715.71,499.24ZM527.94,666.69c6.59,10.43,6.59,24.15-.55,41.17-19.21,45.57-56,49.41-102.12,49.41H282.53l36.78-109.8H471.39C501,647.47,519.71,653.51,527.94,666.69ZM476.33,547.55H352.8l35.69-107.06H521.35c26.36,0,45.57,6.59,54.36,19.22q10.69,14,3.29,36.23C564.18,543.71,530.14,547.55,476.33,547.55Z"/><path d="M1200,357.08l-169.16.51h0c-140,0-231.13,77.41-286.59,243.76-32.94,98.28-35.13,165.26-6.58,204.79,22,30.74,62.58,45.57,124.08,45.57h183.92c59.8,0,110.89-14.75,154.33-45.19ZM1034.69,749.59H949c-19.77,0-35.14-6.59-44.47-20.32-22-30.74-9.33-88.94,4.94-131.76,30.74-92.24,76.86-141.1,133.41-141.1h85.65c21.41,0,36.78,7.14,46.67,20.32,16.47,23,15.37,65.33-5,124.62C1138.45,696.88,1090.69,749.59,1034.69,749.59Z"/></svg>