<svg xmlns="http://www.w3.org/2000/svg" viewBox="0 0 640 537.02"><defs><style>.a{fill:#00c0fc;}.b{fill:#fff;}</style></defs><title>svs_svenska_spel_sport_casino</title><polygon class="a" points="640 537.02 640 0 0 0 640 537.02"/><path class="b" d="M362.49,91.1c-4.9,0-8.66-1.34-11.18-4-3.12-3.28-3.54-7.73-3.46-10.32H356a7.69,7.69,0,0,0,1.9,5.4A6.14,6.14,0,0,0,362.49,84c3.81,0,6.18-2.22,6.18-5.78,0-2.78-1.5-4.71-4.57-5.88l-5.47-2.07-.19-.06c-6.57-2.49-9.91-7-9.91-13.53,0-7.48,5.59-12.5,13.9-12.5,4.66,0,8.24,1.28,10.65,3.8a12.61,12.61,0,0,1,3.19,9.31h-7.95c-.29-3.69-2.54-6.05-5.83-6.05s-5.51,1.93-5.51,5c0,2.7,1.45,4.55,4.57,5.82,1.26.5,2.12.83,3.11,1.2.68.26,1.43.54,2.41.93,7.14,2.71,10.32,6.86,10.32,13.46,0,8.16-5.84,13.43-14.9,13.43"/><polygon class="b" points="394.03 90.24 381.48 55.46 390.54 55.46 398.87 80.71 407.26 55.46 415.6 55.46 403.31 90.24 394.03 90.24"/><path class="b" d="M436.51,90.84c-10.79,0-17.75-7-17.75-17.89,0-10.65,7-18.09,17-18.09,10.31,0,17,6.76,17.09,17.23,0,.86,0,1.92-.1,3.26h-25.6l0,.43c.49,4.89,4.08,7.93,9.37,7.93a9.52,9.52,0,0,0,8.52-4.45l6.25,3.55c-1.15,2.26-5.06,8-14.84,8m-.73-29.25a8,8,0,0,0-8.37,7.68l0,.41h17l0-.41c-.29-4.67-3.66-7.68-8.57-7.68"/><path class="b" d="M479.86,90.24v-21c0-4.41-2.24-7-6-7s-6,2.66-6,7.11V90.24h-8.19V55.46h8.19v4l.71-1c.43-.58,2.83-3.49,8-3.49S488,57.33,488,68.16V90.24Z"/><path class="b" d="M507.73,90.77c-4.49,0-7.9-1.15-10.15-3.43a10.23,10.23,0,0,1-2.82-7.15h7.75c.25,2.11,1.95,4.25,5.29,4.25,2.89,0,4.84-1.52,4.84-3.78s-1.21-3.38-4.17-4c-2.07-.44-3.24-.76-5-1.25l-.28-.08c-5.21-1.65-7.76-5-7.76-10.19,0-6,5-10.25,12.11-10.25,7.54,0,12,3.62,12.29,9.93h-7.44A4.72,4.72,0,0,0,507.33,61c-2.58,0-4.25,1.41-4.25,3.58,0,2,1.34,3.21,4.1,3.84l.75.15c1.36.27,2.53.5,3.77.78,6.33,1.69,8.8,4.6,8.8,10.39,0,5.34-3.35,11-12.77,11"/><polygon class="b" points="546.84 90.24 535.61 73.67 535.61 90.24 527.41 90.24 527.41 42.43 535.61 42.43 535.61 70.19 546.76 55.46 556.14 55.46 543.69 71.48 556.72 90.24 546.84 90.24"/><path class="b" d="M571.5,90.77c-7.24,0-12.3-4.87-12.3-11.84s4.89-11.44,12.17-11.44a11.15,11.15,0,0,1,6.62,2l.62.46V67.17c0-3.59-2.19-5.92-5.58-5.92-3.59,0-4.63,2.3-4.89,3.2h-7.66c.3-3.67,3.21-9.39,12.55-9.39,9,0,13.57,4.36,13.57,13V90.24h-6.66v-3l-.66.63a10.94,10.94,0,0,1-7.78,2.88m1.2-17.62a5.56,5.56,0,0,0-5.91,5.71,6,6,0,0,0,12,0c0-3.36-2.51-5.71-6.1-5.71"/><path class="b" d="M297,160.06c-5,0-8.8-1.36-11.36-4.05-3.18-3.33-3.59-7.85-3.52-10.48h8.26a7.77,7.77,0,0,0,1.94,5.49,6.21,6.21,0,0,0,4.68,1.81c3.87,0,6.27-2.25,6.27-5.87,0-2.83-1.52-4.78-4.65-6-2.23-.85-3.31-1.26-5.55-2.09l-.19-.07c-6.68-2.53-10.07-7.15-10.07-13.74,0-7.6,5.68-12.7,14.12-12.7,4.73,0,8.37,1.3,10.82,3.86A12.85,12.85,0,0,1,311,125.7h-8.08c-.28-3.75-2.58-6.14-5.91-6.14s-5.6,2-5.6,5.12c0,2.73,1.47,4.61,4.64,5.9,1.28.52,2.15.85,3.15,1.23l2.46.94c7.25,2.75,10.48,7,10.48,13.67,0,8.29-5.94,13.64-15.13,13.64"/><path class="b" d="M319.64,171V123.86h7.78v4l.67-.65c1.87-1.8,5.26-3.93,10.87-3.93,10.55,0,17.64,7.3,17.64,18.16s-7.43,18.38-18.05,18.38a15.41,15.41,0,0,1-9.93-3.42l-.66-.58V171ZM338,130.49c-6.22,0-10.39,4.45-10.39,11.07,0,6.47,4.27,11,10.39,11s10.32-4.42,10.32-11-4.25-11.07-10.32-11.07"/><path class="b" d="M374.64,157.34c-10.78,0-17.75-7-17.75-17.9,0-10.65,7-18.08,17-18.08,10.32,0,17,6.76,17.09,17.22,0,.86,0,1.93-.1,3.26H365.3l0,.43c.49,4.89,4.08,7.93,9.37,7.93a9.5,9.5,0,0,0,8.52-4.44l6.25,3.55c-1.15,2.26-5.06,8-14.84,8m-.73-29.25a8,8,0,0,0-8.36,7.67l0,.42h17l0-.42c-.29-4.66-3.65-7.67-8.57-7.67"/><rect class="b" x="397.78" y="108.92" width="8.19" height="47.81"/><path class="b" d="M440.6,157.6c-4.9,0-8.66-1.34-11.18-4-3.12-3.27-3.54-7.73-3.46-10.32h8.13a7.65,7.65,0,0,0,1.9,5.4,6.14,6.14,0,0,0,4.61,1.78c3.81,0,6.18-2.21,6.18-5.77,0-2.79-1.5-4.71-4.57-5.89-2.2-.84-3.27-1.24-5.47-2.06l-.19-.07c-6.57-2.49-9.91-7-9.91-13.52,0-7.48,5.59-12.51,13.9-12.51,4.66,0,8.25,1.28,10.66,3.8a12.69,12.69,0,0,1,3.19,9.31h-8c-.29-3.68-2.54-6-5.83-6s-5.5,1.93-5.5,5c0,2.69,1.44,4.54,4.56,5.81,1.26.51,2.12.84,3.11,1.21.69.26,1.43.54,2.41.93,7.14,2.71,10.33,6.86,10.33,13.45,0,8.17-5.85,13.44-14.91,13.44"/><path class="b" d="M462.88,168.37V122h7.66v3.92l.66-.63c1.84-1.78,5.18-3.88,10.7-3.88,10.39,0,17.36,7.19,17.36,17.89s-7.3,18.09-17.75,18.09a15.18,15.18,0,0,1-9.79-3.37l-.65-.57v15ZM481,128.48c-6.12,0-10.23,4.39-10.23,10.9S475,150.2,481,150.2s10.16-4.35,10.16-10.82S487,128.48,481,128.48"/><path class="b" d="M523.2,157.34c-10.69,0-18.16-7.36-18.16-17.9s7.61-18.08,18.1-18.08c10.76,0,18.28,7.38,18.28,18s-7.66,18-18.22,18m0-28.73c-6,0-10,4.33-10,10.77,0,6.2,4.22,10.69,10,10.69s10.1-4.39,10.1-10.69-4.25-10.77-10.1-10.77"/><path class="b" d="M548.4,156.74V122h8.19v3.9l.71-1c.92-1.3,2.61-3,6.6-3H564v8.53h-1.8c-3.91,0-5.58,1.58-5.58,5.3v21.09Z"/><path class="b" d="M582.38,157.07c-6.31,0-9.38-3-9.38-9.12V128.68h-3.65V122H573V116h8.13V122h5.78v6.73h-5.78v16.75c0,3.07,1.15,4.38,3.85,4.38h1.93v6.82a19.72,19.72,0,0,1-4.53.44"/><path class="b" d="M351.81,224c-10.66,0-17.55-5.43-17.55-13.83a13.07,13.07,0,0,1,7.1-12.09l.49-.25-.41-.38a11,11,0,0,1-3.46-8.36c0-6.93,5.33-11.77,13-11.77,8.08,0,13.31,4.62,13.31,11.77a10.41,10.41,0,0,1-8.79,10.72l-.74.12,8.4,8.69.22-.58a23.31,23.31,0,0,0,1.3-8.65h7.86A27,27,0,0,1,369,214.45l-.15.26,8.2,8.53H367l-3.12-3.11-.27.19a19.62,19.62,0,0,1-11.8,3.65m-5.59-21.35a7.24,7.24,0,0,0-3.37,6.32c0,4.57,3.76,7.77,9.16,7.77a11.24,11.24,0,0,0,6.21-1.73l.39-.26-12.12-12.26Zm4.93-18.8a5.32,5.32,0,0,0-5.51,5.51,5.52,5.52,0,0,0,5.64,5.51,5.51,5.51,0,1,0-.13-11"/><path class="b" d="M414.06,224.1c-14,0-23.81-9.62-23.81-23.4s9.93-23.54,23.61-23.54a22.18,22.18,0,0,1,14.75,5l-5,6.3a15.11,15.11,0,0,0-9.66-3.55c-8.82,0-14.75,6.3-14.75,15.68,0,9.09,6.26,15.68,14.89,15.68a14.85,14.85,0,0,0,9.79-3.76l4.9,5.86a20.81,20.81,0,0,1-14.69,5.69"/><path class="b" d="M445.85,223.77c-7.25,0-12.31-4.87-12.31-11.84s4.89-11.44,12.17-11.44a11.13,11.13,0,0,1,6.62,2l.63.46v-2.76c0-3.59-2.19-5.92-5.58-5.92-3.59,0-4.63,2.3-4.9,3.2h-7.66c.3-3.67,3.22-9.39,12.56-9.39,9,0,13.56,4.36,13.56,13v22.21h-6.66v-3l-.66.63a10.91,10.91,0,0,1-7.77,2.88M447,206.15a5.55,5.55,0,0,0-5.9,5.71,6,6,0,0,0,12,0c0-3.36-2.51-5.71-6.11-5.71"/><path class="b" d="M480.76,223.77c-4.49,0-7.9-1.15-10.15-3.43a10.23,10.23,0,0,1-2.82-7.15h7.76c.24,2.11,1.94,4.25,5.28,4.25,2.89,0,4.84-1.52,4.84-3.78s-1.21-3.38-4.17-4c-2-.43-3.2-.75-4.86-1.21l-.43-.11c-5.21-1.66-7.75-5-7.75-10.2,0-6,5-10.25,12.1-10.25,7.54,0,12,3.61,12.29,9.93h-7.43a4.73,4.73,0,0,0-5.06-3.86c-2.57,0-4.24,1.41-4.24,3.58,0,2,1.34,3.21,4.09,3.84l.75.15c1.36.27,2.54.5,3.77.78,6.33,1.69,8.8,4.6,8.8,10.39,0,5.34-3.35,11-12.77,11"/><path class="b" d="M500.44,188.45h8.12v34.79h-8.12Zm3.93-4a4.93,4.93,0,1,1,4.93-4.92,4.87,4.87,0,0,1-4.93,4.92"/><path class="b" d="M537.14,223.24v-21c0-4.41-2.23-7-6-7s-6,2.66-6,7.11v21h-8.19V188.46h8.19v4l.71-1c.43-.58,2.84-3.49,8-3.49s11.44,2.27,11.44,13.1v22.08Z"/><path class="b" d="M570.33,223.84c-10.69,0-18.16-7.36-18.16-17.89s7.61-18.09,18.1-18.09c10.76,0,18.28,7.38,18.28,18s-7.66,18-18.22,18m0-28.72c-6,0-10,4.32-10,10.77,0,6.19,4.22,10.69,10,10.69s10.1-4.4,10.1-10.69-4.25-10.77-10.1-10.77"/></svg>