<svg id="Layer_1" data-name="Layer 1" xmlns="http://www.w3.org/2000/svg" viewBox="0 0 1200 1200"><defs><style>.cls-1{fill:#f29400;}.cls-2{fill:#00befa;}.cls-3{fill:#fff;}</style></defs><title>svs_product_topptipset</title><rect class="cls-1" width="1200" height="1200"/><polygon class="cls-2" points="825.11 190.96 1200 190.96 1200 0 600 0 825.11 190.96"/><path class="cls-3" d="M612.29,299.8c-57.54,0-107.36,20.17-148.88,61.1-56.36,55.16-84.23,134.65-84.23,238.45,0,109.14,26.69,190.41,80.67,244.39,42.71,42.71,94.31,64.06,154.22,64.06,67.62,0,122.19-27.88,164.31-83.64s63.47-128.72,63.47-218.28c0-93.13-20.76-167.87-62.28-223S682.29,299.8,612.29,299.8ZM671,607.66c0,48.64-5.34,86.6-16,114.48-10.68,27.28-25.51,40.93-45.08,40.93-19,0-33.81-13.65-44.49-41.53-10.68-27.28-16-66.43-16-116.85,0-51,5.93-90.16,17.2-116.26q16.9-42.71,46.26-42.71c38.56,0,58.14,54,58.14,161.94Z"/><path class="cls-3" d="M1200,364.08q-4.79-4.68-10-9.12c-37.37-31.43-94.91-47.45-172-47.45H862.61V900.68h159.56V706.12h24.92c59.91,0,106.17-11.86,138.2-35.59A169.59,169.59,0,0,0,1200,658.19ZM1076.15,564.35q-16.9,17.8-46.27,17.8l-7.11-.59-.6-135.84h11.27c17.8,0,32,6.52,43.3,19.57,10.68,12.46,16.61,29.07,16.61,49.83S1087.42,552.49,1076.15,564.35Z"/><polygon class="cls-3" points="135.38 900.68 295.54 900.68 295.54 449.87 387.48 449.87 387.48 307.51 47 307.51 47 449.87 135.38 449.87 135.38 900.68"/></svg>