<svg id="Layer_1" data-name="Layer 1" xmlns="http://www.w3.org/2000/svg" viewBox="0 0 1200 1200"><defs><style>.cls-1{fill:#008733;}.cls-2{fill:#00befa;}.cls-3{fill:#fff;}</style></defs><title>svs_product_europatipset</title><rect class="cls-1" width="1200" height="1200"/><polygon class="cls-2" points="825.11 190.96 1200 190.96 1200 0 600 0 825.11 190.96"/><polygon class="cls-3" points="345.27 757.32 207.66 757.32 207.66 674.87 331.04 674.87 331.04 532.51 207.66 532.51 207.66 448.87 345.27 448.87 345.27 306.51 47.5 306.51 47.5 899.68 345.27 899.68 345.27 757.32"/><path class="cls-3" d="M378.49,306.51V702.75c0,74.74,23.13,129.31,70.59,163.12,37.37,27.29,83.63,40.34,138.21,40.34,48.64,0,89.56-11.87,123.37-36.19,25.51-17.79,43.31-38,54-60.5,11.27-21.35,16.61-49.23,16.61-83.64V306.51H621.1s0,387.34-.6,387.93q0,39.15-8.89,55.17c-5.94,10.08-16.61,14.83-32,14.83-14.83,0-24.91-5.34-31.43-16s-9.49-29.06-9.49-54.57V306.51Z"/><path class="cls-3" d="M1200,822.84l-82.42-169.32c41.5-18.94,69-47.74,82.42-86.75V435.61c-10.61-34.87-30.13-63.76-58.69-86.39q-53.38-42.71-161.94-42.71H815.06V899.68H974.63V692.07l-1.19-39.15q4.45,12.47,7.12,21.36c1.78,5.93,3.56,10.67,4.15,14.23l79.48,211.17H1200ZM1032.16,550.9q-18.68,21.35-46.26,21.35H975.22V430.48h5.93c46.27,0,69.4,21.95,69.4,66.44C1050.55,518.87,1044.62,536.66,1032.16,550.9Z"/></svg>