<svg id="Layer_1" data-name="Layer 1" xmlns="http://www.w3.org/2000/svg" viewBox="0 0 1200 1200"><defs><style>.cls-1{fill:#a00813;}.cls-2{fill:#00befa;}.cls-3{fill:#fff;}</style></defs><title>svs_product_powerplay</title><rect class="cls-1" width="1200" height="1200"/><polygon class="cls-2" points="825.11 190.96 1200 190.96 1200 0 600 0 825.11 190.96"/><path class="cls-3" d="M1200,533.28c-2.08,13.63-6.15,30.24-12.85,50-26.36,78.51-63.69,124.07-102.67,124.07h-85.1c-12.63,0-15.37-4.39-16.47-6-7.68-10.43-9.33-43.92,9.88-101,33.49-102.12,77.42-118,99.93-118h85.09c14.28,0,17.57,5.49,18.67,7.13A21.79,21.79,0,0,1,1200,497V317.5H1081.19c-153.73,0-257.49,86.75-316.79,265.18-36.78,110.35-37.33,185.57-1.65,235,29.1,40.08,78,59.84,150.44,59.84H1096c37.3,0,72-5.62,104-16.66Z"/><path class="cls-3" d="M308.17,850.6l56-165.26H551.93c114.2,0,193.26-63.68,222.9-177.33,13.73-53.26,8.79-97.73-15.37-129h0c-28.55-36.78-81.8-56-159.21-56H249.42l-7.68,23.06-161.42,482L65.5,872h235ZM434.44,471.23H544.25c17,0,24.7,3.84,26.9,5.49a11.22,11.22,0,0,1-1.1,4.94c-7.14,22.51-12.08,28-71.37,28H421.26Z"/><path d="M340,650.21H551.38c125.18,0,172.94-82.36,191.06-151.53,11.53-43.38,8.24-76.32-9.33-99.38-22-28-66.43-42.27-132.86-42.27H273.58l-162.51,482h165.8Zm70.82-210.28H544.25c26.35,0,45,6.59,53.8,18.67,7.14,8.78,8.23,20.86,3.84,35.14-14.82,46.66-44.47,51.6-102.66,51.6H375.7Z"/><path d="M1200,639.86c-30.28,64.57-70.5,99.29-115.52,99.29h-85.1c-19.21,0-34-6.59-43.37-19.77-21.41-30.19-9.33-87.29,4.94-130.12,30.2-91.13,75.77-139.45,131.77-139.45h85.09A71.71,71.71,0,0,1,1200,453V350.44H1081.19c-139.45,0-230,76.86-285.49,242.67-33,98.27-34.59,164.7-6.59,204.23,22,30.75,62.59,45.57,124.08,45.57H1096c38.14,0,72.7-6,104-18.36Z"/></svg>