<svg id="Layer_1" data-name="Layer 1" xmlns="http://www.w3.org/2000/svg" viewBox="0 0 1200 1200"><defs><style>.cls-1{fill:#00427a;}.cls-2{fill:#00befa;}.cls-3{fill:#fff;}</style></defs><title>svs_product_stryktipset</title><rect class="cls-1" width="1200" height="1200"/><polygon class="cls-2" points="825.11 190.96 1200 190.96 1200 0 600 0 825.11 190.96"/><polygon class="cls-3" points="626.22 900.7 626.22 447.26 718.7 447.26 718.7 304.07 376.23 304.07 376.23 447.26 465.13 447.26 465.13 900.7 626.22 900.7"/><path class="cls-3" d="M67.77,577.92A184.06,184.06,0,0,0,98.2,617.3c13.13,13.13,28,25.65,45.94,38.78L171,676.37c19.69,14.91,29.23,30.42,29.23,45.94,0,11.33-4.17,20.28-13.12,27.44s-20.29,10.74-34.61,10.74c-37.58,0-72.79-22.07-105-66.22V881.61c44.15,16.7,85.32,25.06,124.1,24.46,55.48,0,102-18.5,138.42-56.08s54.89-84.73,54.89-142.6c0-34-7.16-63.84-22.68-88.9-14.91-25.06-40-50.11-74.58-74L241.39,526C219.32,510.5,208,495,208,479.48c0-9.55,4.18-17.9,12.53-24.47,7.76-7.16,18.5-10.73,31-10.73q24.15,0,50.11,17.89c17.31,11.94,32.82,28.05,45.94,48.93V328.53Q288.54,298.1,229.46,298.1c-43.55,0-81.14,13.13-112.17,38.18a160.23,160.23,0,0,0-29.83,30.43A222,222,0,0,0,64.79,404.9q-19.7,44.75-19.69,85.91a188.73,188.73,0,0,0,5.37,45.35C54.05,550.48,60,564.2,67.77,577.92Z"/><path class="cls-3" d="M1141.71,503.34c0-67.42-22.67-119.32-68.61-155.72q-53.7-43-162.88-43H745.55V900.1H906V691.88l-1.19-39.38Q909.32,665,912,674c1.79,6,3.58,10.74,4.18,14.32l79.35,212.4h174.22L1049.24,652.5C1110.69,625.06,1141.71,575.53,1141.71,503.34Zm-177.2,47.14Q945.72,572,918,572H907.24V429.36h6c46.54,0,69.81,22.08,69.81,66.82C983,518.26,977,536.16,964.51,550.48Z"/><polygon class="cls-3" points="1200 304.66 1106.51 304.66 1200 521.8 1200 304.66"/></svg>